# xmcd
#
# Track frame offsets:
#	183
#	17865
#	38038
#	59965
#	84558
#
# Disc length: 1630 seconds
#
# Revision: 8
# Processed by: cddbd v1.5.2PL0 Copyright (c) Steve Scherf et al.
# Submitted via: audiograbber 1.83.01
#
DISCID=3f065c05
DTITLE=Iron Maiden - Run To The Hills - The Number Of The Beast EP
DYEAR=1982
DGENRE=Heavy Metal
TTITLE0=Run To The Hills
TTITLE1=Total Eclipse
TTITLE2=The Number Of The Beast
TTITLE3=Remember Tomorrow (Live in Italy - Vox Bruce Dickinson)
TTITLE4=Listen With Nicko! Part IV
EXTD=First Ten Years Edition Part IV - 1990
EXTT0=
EXTT1=
EXTT2=
EXTT3=
EXTT4=
PLAYORDER=
